<?xml version="1.0" encoding="UTF-8" standalone="no"?>
<!-- Created with Inkscape (http://www.inkscape.org/) -->

<svg
   width="30mm"
   height="30mm"
   viewBox="0 0 30 30"
   version="1.1"
   id="svg5"
   inkscape:version="1.1.1 (3bf5ae0d25, 2021-09-20)"
   sodipodi:docname="logo.svg"
   inkscape:export-filename="logo.png"
   inkscape:export-xdpi="433.48999"
   inkscape:export-ydpi="433.48999"
   xmlns:inkscape="http://www.inkscape.org/namespaces/inkscape"
   xmlns:sodipodi="http://sodipodi.sourceforge.net/DTD/sodipodi-0.dtd"
   xmlns:xlink="http://www.w3.org/1999/xlink"
   xmlns="http://www.w3.org/2000/svg"
   xmlns:svg="http://www.w3.org/2000/svg">
  <sodipodi:namedview
     id="namedview7"
     pagecolor="#ffffff"
     bordercolor="#666666"
     borderopacity="1.0"
     inkscape:pageshadow="2"
     inkscape:pageopacity="0.0"
     inkscape:pagecheckerboard="0"
     inkscape:document-units="mm"
     showgrid="false"
     inkscape:zoom="6.6742705"
     inkscape:cx="32.438002"
     inkscape:cy="46.821597"
     inkscape:window-width="3840"
     inkscape:window-height="2081"
     inkscape:window-x="-9"
     inkscape:window-y="-9"
     inkscape:window-maximized="1"
     inkscape:current-layer="layer1" />
  <defs
     id="defs2">
    <linearGradient
       inkscape:collect="always"
       id="linearGradient2118">
      <stop
         style="stop-color:#5699b2;stop-opacity:1"
         offset="0"
         id="stop2114" />
      <stop
         style="stop-color:#606060;stop-opacity:1"
         offset="1"
         id="stop2116" />
    </linearGradient>
    <radialGradient
       inkscape:collect="always"
       xlink:href="#linearGradient2118"
       id="radialGradient2344"
       cx="102.75455"
       cy="220.05652"
       fx="102.75455"
       fy="220.05652"
       r="15.610415"
       gradientTransform="matrix(1.7141342,0.75444052,-0.35389471,0.80407013,5.5295675,-38.110082)"
       gradientUnits="userSpaceOnUse" />
  </defs>
  <g
     inkscape:label="Layer 1"
     inkscape:groupmode="layer"
     id="layer1">
    <g
       id="g2058"
       transform="matrix(0.9155624,0,0,0.9155624,-92.150167,-187.49025)"
       style="fill:url(#radialGradient2344);fill-opacity:1">
      <path
         style="fill:url(#radialGradient2344);stroke-width:0.264583;fill-opacity:1.0"
         d="m 114.1459,209.19339 c -0.12585,-0.12586 3.48327,-1.74233 3.93943,-1.74233 0.22152,0 0.86782,0.47625 1.4362,1.05834 0.56839,0.58208 0.91006,0.98008 0.75926,0.98008 -2.08796,-0.29992 -3.95761,-0.25239 -6.13489,-0.29609 z"
         id="path1091"
         sodipodi:nodetypes="csscc" />
      <path
         style="fill:url(#radialGradient2344);stroke-width:0.264583;fill-opacity:1.0"
         d="m 122.65447,234.42848 c -0.25466,-0.25686 -1.05374,-1.44039 -1.77574,-2.63006 l -1.31271,-2.16304 -3.58208,-2.05178 c -2.50744,-1.43624 -4.13813,-2.5865 -5.43556,-3.83416 -2.1554,-2.07272 -2.7442,-2.34769 -5.02729,-2.34769 -0.92783,0 -1.74825,-0.0992 -1.82316,-0.22038 -0.0749,-0.12121 0.14817,-0.63889 0.49574,-1.15039 0.90564,-1.33276 2.96766,-2.17853 4.84018,-1.98527 1.42819,0.1474 4.18978,1.28146 5.64654,2.31876 1.32625,0.94438 3.6746,0.17655 3.6746,-1.20146 0,-0.5185 -2.34977,-4.16164 -2.90586,-4.50532 -0.12932,-0.0799 -1.56771,-0.44005 -3.19642,-0.80029 l -2.96131,-0.65499 -2.96918,0.55902 c -2.84677,0.53598 -3.009,0.54013 -3.93487,0.10078 -0.53113,-0.25204 -0.96569,-0.63157 -0.96569,-0.84339 0,-0.48703 5.01561,-2.86073 6.53175,-3.09123 1.90429,-0.28952 10.85407,-0.20767 13.09323,0.11974 1.45219,0.21234 2.26882,0.46709 2.55001,0.79549 0.2275,0.26571 1.55982,3.35066 2.9607,6.85546 2.1962,5.49457 2.79073,6.71516 4.3161,8.86109 0.97297,1.36882 1.76904,2.76474 1.76904,3.10207 0,0.94683 -1.15141,2.42301 -2.63001,3.37182 -2.59781,1.66701 -6.37791,2.38379 -7.35801,1.39522 z"
         id="path1089" />
      <path
         style="fill:url(#radialGradient2344);stroke-width:0.00327439;fill-opacity:1.0"
         d="m 105.62399,218.5145 c -0.18611,-0.019 -0.33605,-0.0722 -0.54619,-0.18909 -0.43695,-0.24335 -0.81744,-0.59687 -1.14187,-1.06135 -0.41942,-0.60046 -0.65363,-1.21474 -0.70065,-1.83766 -0.0109,-0.15599 -0.002,-0.281 0.0328,-0.41185 0.0494,-0.18611 0.13158,-0.33152 0.2618,-0.46198 0.086,-0.086 0.16006,-0.14135 0.27178,-0.20212 0.0768,-0.0421 0.12913,-0.0632 0.19452,-0.0795 0.054,-0.0136 0.0605,-0.0136 0.10363,-0.0136 0.0383,-5e-5 0.0513,0.001 0.0781,0.008 0.0605,0.0163 0.10825,0.0426 0.14976,0.0855 0.0301,0.0312 0.048,0.057 0.0703,0.10255 0.0665,0.13483 0.1229,0.30487 0.17824,0.53878 0.0361,0.15274 0.041,0.18204 0.0407,0.24552 -2.9e-4,0.0621 -0.005,0.0893 -0.0217,0.12398 -0.0271,0.0589 -0.0695,0.10011 -0.15491,0.14894 -0.0448,0.0244 -0.086,0.0442 -0.23792,0.10716 -0.14704,0.0608 -0.15355,0.064 -0.17037,0.0806 -0.0217,0.0217 -0.0307,0.0491 -0.0244,0.0814 0.0109,0.0467 0.0784,0.22544 0.13863,0.36157 0.16847,0.38209 0.42506,0.77973 0.71334,1.10511 0.0694,0.0784 0.25067,0.26099 0.27316,0.27491 0.0244,0.0163 0.048,0.0217 0.0692,0.0163 0.0244,-0.005 0.0459,-0.0217 0.0852,-0.0705 0.0982,-0.11991 0.17091,-0.18909 0.25691,-0.24471 0.10662,-0.0692 0.21161,-0.0863 0.30336,-0.0496 0.0494,0.019 0.22626,0.13863 0.33353,0.22409 0.13022,0.10391 0.27552,0.24688 0.33353,0.32816 0.11367,0.15925 0.11231,0.28369 -0.005,0.44052 -0.0931,0.12425 -0.27854,0.24851 -0.45553,0.30491 -0.0703,0.0217 -0.12886,0.0347 -0.20998,0.0445 -0.0524,0.005 -0.16359,0.005 -0.2211,-1.6e-4 z m 1.27374,-1.74205 c -0.0692,-0.0136 -0.12398,-0.061 -0.14595,-0.12697 -0.0108,-0.0345 -0.0108,-0.0741 -3e-4,-0.14107 0.0383,-0.22897 0.0326,-0.43184 -0.019,-0.6396 -0.0757,-0.31237 -0.26994,-0.62194 -0.52346,-0.83336 -0.0874,-0.073 -0.17064,-0.12696 -0.2803,-0.18231 -0.12452,-0.0629 -0.2249,-0.0985 -0.37981,-0.13537 -0.019,-0.005 -0.0467,-0.0136 -0.06,-0.019 -0.0437,-0.0217 -0.0817,-0.0654 -0.0977,-0.11286 -0.008,-0.0277 -0.008,-0.0892 0.001,-0.11855 0.019,-0.0553 0.0632,-0.0998 0.12046,-0.12127 0.0163,-0.005 0.0244,-0.008 0.0619,-0.008 0.0448,1.4e-4 0.0789,0.008 0.17471,0.0344 0.44449,0.12751 0.82709,0.40605 1.08322,0.78895 0.17716,0.26478 0.2844,0.56494 0.3172,0.88737 0.008,0.0697 0.0109,0.23006 0.005,0.30124 -0.008,0.1427 -0.0323,0.28095 -0.0529,0.32195 -0.0244,0.0459 -0.0629,0.0811 -0.10906,0.0974 -0.019,0.008 -0.0776,0.0109 -0.0969,0.008 z m -0.64111,-0.057 c -0.0713,-0.019 -0.12507,-0.0751 -0.14026,-0.14731 -0.005,-0.0271 -0.005,-0.0532 0.003,-0.10146 0.0163,-0.0893 0.019,-0.21351 0.0109,-0.29487 -0.0136,-0.12615 -0.0524,-0.24335 -0.11394,-0.35526 -0.1058,-0.19261 -0.26126,-0.34207 -0.4456,-0.42886 -0.0665,-0.0312 -0.11693,-0.0488 -0.21106,-0.0735 -0.0624,-0.0163 -0.0895,-0.0298 -0.11856,-0.0589 -0.0586,-0.0589 -0.0724,-0.14975 -0.0334,-0.22408 0.0271,-0.0496 0.0779,-0.0882 0.13348,-0.0987 0.0328,-0.005 0.0594,-0.003 0.13347,0.0163 0.35599,0.0893 0.64072,0.29794 0.83879,0.61443 0.11177,0.17851 0.17579,0.36459 0.20048,0.58197 0.008,0.0746 0.008,0.22409 -0.001,0.29962 -0.0163,0.13619 -0.0307,0.17824 -0.0754,0.22246 -0.0496,0.0491 -0.11367,0.0667 -0.18014,0.0494 z m -0.60832,-0.0496 c -0.044,-0.005 -0.0958,-0.0326 -0.12507,-0.0667 -0.038,-0.0445 -0.0507,-0.0993 -0.0385,-0.16847 0.0244,-0.13728 -0.0136,-0.27075 -0.10554,-0.37889 -0.0217,-0.0244 -0.07,-0.0648 -0.10227,-0.0841 -0.0358,-0.0217 -0.06,-0.0309 -0.121,-0.0494 -0.0646,-0.019 -0.0838,-0.0296 -0.11476,-0.0605 -0.038,-0.0377 -0.0553,-0.0781 -0.0553,-0.12995 -5e-5,-0.0347 0.005,-0.057 0.0163,-0.083 0.0244,-0.0545 0.0765,-0.0958 0.1332,-0.1077 0.0597,-0.0136 0.16576,0.0136 0.27735,0.0684 0.20265,0.0996 0.35634,0.27694 0.42544,0.49088 0.0385,0.1191 0.048,0.22138 0.0317,0.34045 -0.0136,0.0952 -0.0217,0.12153 -0.0488,0.15707 -0.041,0.0529 -0.10499,0.0795 -0.17308,0.0719 z"
         id="path1955" />
    </g>
  </g>
</svg>
